{
	"patcher" : 	{
		"fileversion" : 1,
		"appversion" : 		{
			"major" : 5,
			"minor" : 1,
			"revision" : 9
		}
,
		"rect" : [ 455.0, 44.0, 520.0, 601.0 ],
		"bglocked" : 0,
		"defrect" : [ 455.0, 44.0, 520.0, 601.0 ],
		"openrect" : [ 0.0, 0.0, 0.0, 0.0 ],
		"openinpresentation" : 0,
		"default_fontsize" : 12.0,
		"default_fontface" : 0,
		"default_fontname" : "Arial",
		"gridonopen" : 0,
		"gridsize" : [ 15.0, 15.0 ],
		"gridsnaponopen" : 0,
		"toolbarvisible" : 1,
		"boxanimatetime" : 200,
		"imprint" : 0,
		"enablehscroll" : 1,
		"enablevscroll" : 1,
		"devicewidth" : 0.0,
		"boxes" : [ 			{
				"box" : 				{
					"maxclass" : "newobj",
					"text" : "p logarithmic",
					"outlettype" : [ "" ],
					"patching_rect" : [ 217.0, 503.0, 135.5, 20.0 ],
					"id" : "obj-63",
					"fontname" : "Arial",
					"color" : [ 0.87451, 0.25098, 0.717647, 1.0 ],
					"numinlets" : 6,
					"numoutlets" : 1,
					"fontsize" : 12.0,
					"patcher" : 					{
						"fileversion" : 1,
						"appversion" : 						{
							"major" : 5,
							"minor" : 1,
							"revision" : 9
						}
,
						"rect" : [ 37.0, 374.0, 435.0, 413.0 ],
						"bglocked" : 0,
						"defrect" : [ 37.0, 374.0, 435.0, 413.0 ],
						"openrect" : [ 0.0, 0.0, 0.0, 0.0 ],
						"openinpresentation" : 0,
						"default_fontsize" : 12.0,
						"default_fontface" : 0,
						"default_fontname" : "Arial",
						"gridonopen" : 0,
						"gridsize" : [ 15.0, 15.0 ],
						"gridsnaponopen" : 0,
						"toolbarvisible" : 1,
						"boxanimatetime" : 200,
						"imprint" : 0,
						"enablehscroll" : 1,
						"enablevscroll" : 1,
						"devicewidth" : 0.0,
						"boxes" : [ 							{
								"box" : 								{
									"maxclass" : "newobj",
									"text" : "t b f",
									"outlettype" : [ "bang", "float" ],
									"patching_rect" : [ 361.0, 59.0, 32.5, 20.0 ],
									"id" : "obj-4",
									"fontname" : "Arial",
									"numinlets" : 1,
									"numoutlets" : 2,
									"fontsize" : 12.0
								}

							}
, 							{
								"box" : 								{
									"maxclass" : "newobj",
									"text" : "f",
									"outlettype" : [ "float" ],
									"patching_rect" : [ 173.0, 269.0, 32.5, 20.0 ],
									"id" : "obj-46",
									"fontname" : "Arial",
									"numinlets" : 2,
									"numoutlets" : 1,
									"fontsize" : 12.0
								}

							}
, 							{
								"box" : 								{
									"maxclass" : "newobj",
									"text" : "expr pow($f2\\,$f1)",
									"outlettype" : [ "" ],
									"patching_rect" : [ 172.536377, 295.529114, 107.0, 20.0 ],
									"id" : "obj-48",
									"fontname" : "Arial",
									"numinlets" : 2,
									"numoutlets" : 1,
									"fontsize" : 12.0
								}

							}
, 							{
								"box" : 								{
									"maxclass" : "newobj",
									"text" : "f",
									"outlettype" : [ "float" ],
									"patching_rect" : [ 63.0, 269.0, 32.5, 20.0 ],
									"id" : "obj-42",
									"fontname" : "Arial",
									"numinlets" : 2,
									"numoutlets" : 1,
									"fontsize" : 12.0
								}

							}
, 							{
								"box" : 								{
									"maxclass" : "newobj",
									"text" : "expr pow($f2\\,$f1)",
									"outlettype" : [ "" ],
									"patching_rect" : [ 62.536377, 295.529114, 107.0, 20.0 ],
									"id" : "obj-44",
									"fontname" : "Arial",
									"numinlets" : 2,
									"numoutlets" : 1,
									"fontsize" : 12.0
								}

							}
, 							{
								"box" : 								{
									"maxclass" : "comment",
									"text" : "logarithmic base",
									"patching_rect" : [ 90.0, 91.0, 98.0, 20.0 ],
									"id" : "obj-39",
									"fontname" : "Arial",
									"numinlets" : 1,
									"numoutlets" : 0,
									"fontsize" : 12.0
								}

							}
, 							{
								"box" : 								{
									"maxclass" : "newobj",
									"text" : "scale 0. 0. 0. 1.",
									"outlettype" : [ "" ],
									"patching_rect" : [ 30.536377, 331.529114, 181.0, 20.0 ],
									"id" : "obj-30",
									"fontname" : "Arial",
									"numinlets" : 6,
									"numoutlets" : 1,
									"fontsize" : 12.0
								}

							}
, 							{
								"box" : 								{
									"maxclass" : "newobj",
									"text" : "expr pow($f2\\,$f1)",
									"outlettype" : [ "" ],
									"patching_rect" : [ 30.536377, 118.529114, 107.0, 20.0 ],
									"id" : "obj-23",
									"fontname" : "Arial",
									"numinlets" : 2,
									"numoutlets" : 1,
									"fontsize" : 12.0
								}

							}
, 							{
								"box" : 								{
									"maxclass" : "inlet",
									"outlettype" : [ "" ],
									"patching_rect" : [ 31.0, 25.0, 25.0, 25.0 ],
									"id" : "obj-56",
									"numinlets" : 0,
									"numoutlets" : 1,
									"comment" : ""
								}

							}
, 							{
								"box" : 								{
									"maxclass" : "inlet",
									"outlettype" : [ "float" ],
									"patching_rect" : [ 360.86969, 25.0, 25.0, 25.0 ],
									"id" : "obj-57",
									"numinlets" : 0,
									"numoutlets" : 1,
									"comment" : ""
								}

							}
, 							{
								"box" : 								{
									"maxclass" : "inlet",
									"outlettype" : [ "float" ],
									"patching_rect" : [ 281.25, 25.0, 25.0, 25.0 ],
									"id" : "obj-58",
									"numinlets" : 0,
									"numoutlets" : 1,
									"comment" : ""
								}

							}
, 							{
								"box" : 								{
									"maxclass" : "inlet",
									"outlettype" : [ "float" ],
									"patching_rect" : [ 63.25, 25.0, 25.0, 25.0 ],
									"id" : "obj-59",
									"numinlets" : 0,
									"numoutlets" : 1,
									"comment" : ""
								}

							}
, 							{
								"box" : 								{
									"maxclass" : "inlet",
									"outlettype" : [ "float" ],
									"patching_rect" : [ 313.25, 25.0, 25.0, 25.0 ],
									"id" : "obj-60",
									"numinlets" : 0,
									"numoutlets" : 1,
									"comment" : ""
								}

							}
, 							{
								"box" : 								{
									"maxclass" : "inlet",
									"outlettype" : [ "float" ],
									"patching_rect" : [ 173.25, 25.0, 25.0, 25.0 ],
									"id" : "obj-61",
									"numinlets" : 0,
									"numoutlets" : 1,
									"comment" : ""
								}

							}
, 							{
								"box" : 								{
									"maxclass" : "outlet",
									"patching_rect" : [ 30.536377, 364.529114, 25.0, 25.0 ],
									"id" : "obj-62",
									"numinlets" : 1,
									"numoutlets" : 0,
									"comment" : ""
								}

							}
 ],
						"lines" : [ 							{
								"patchline" : 								{
									"source" : [ "obj-42", 0 ],
									"destination" : [ "obj-44", 0 ],
									"hidden" : 0,
									"midpoints" : [  ]
								}

							}
, 							{
								"patchline" : 								{
									"source" : [ "obj-59", 0 ],
									"destination" : [ "obj-42", 0 ],
									"hidden" : 0,
									"midpoints" : [  ]
								}

							}
, 							{
								"patchline" : 								{
									"source" : [ "obj-46", 0 ],
									"destination" : [ "obj-48", 0 ],
									"hidden" : 0,
									"midpoints" : [  ]
								}

							}
, 							{
								"patchline" : 								{
									"source" : [ "obj-61", 0 ],
									"destination" : [ "obj-46", 0 ],
									"hidden" : 0,
									"midpoints" : [  ]
								}

							}
, 							{
								"patchline" : 								{
									"source" : [ "obj-4", 1 ],
									"destination" : [ "obj-48", 1 ],
									"hidden" : 0,
									"midpoints" : [ 384.0, 244.264557, 270.036377, 244.264557 ]
								}

							}
, 							{
								"patchline" : 								{
									"source" : [ "obj-4", 1 ],
									"destination" : [ "obj-44", 1 ],
									"hidden" : 0,
									"midpoints" : [ 384.0, 227.264557, 160.036377, 227.264557 ]
								}

							}
, 							{
								"patchline" : 								{
									"source" : [ "obj-4", 1 ],
									"destination" : [ "obj-23", 1 ],
									"hidden" : 0,
									"midpoints" : [ 384.0, 113.264557, 128.036377, 113.264557 ]
								}

							}
, 							{
								"patchline" : 								{
									"source" : [ "obj-4", 0 ],
									"destination" : [ "obj-46", 0 ],
									"hidden" : 0,
									"midpoints" : [  ]
								}

							}
, 							{
								"patchline" : 								{
									"source" : [ "obj-4", 0 ],
									"destination" : [ "obj-42", 0 ],
									"hidden" : 0,
									"midpoints" : [  ]
								}

							}
, 							{
								"patchline" : 								{
									"source" : [ "obj-57", 0 ],
									"destination" : [ "obj-4", 0 ],
									"hidden" : 0,
									"midpoints" : [  ]
								}

							}
, 							{
								"patchline" : 								{
									"source" : [ "obj-56", 0 ],
									"destination" : [ "obj-23", 0 ],
									"hidden" : 0,
									"midpoints" : [  ]
								}

							}
, 							{
								"patchline" : 								{
									"source" : [ "obj-48", 0 ],
									"destination" : [ "obj-30", 2 ],
									"hidden" : 0,
									"midpoints" : [ 182.036377, 323.029114, 104.83638, 323.029114 ]
								}

							}
, 							{
								"patchline" : 								{
									"source" : [ "obj-44", 0 ],
									"destination" : [ "obj-30", 1 ],
									"hidden" : 0,
									"midpoints" : [  ]
								}

							}
, 							{
								"patchline" : 								{
									"source" : [ "obj-23", 0 ],
									"destination" : [ "obj-30", 0 ],
									"hidden" : 0,
									"midpoints" : [  ]
								}

							}
, 							{
								"patchline" : 								{
									"source" : [ "obj-58", 0 ],
									"destination" : [ "obj-30", 3 ],
									"hidden" : 0,
									"midpoints" : [  ]
								}

							}
, 							{
								"patchline" : 								{
									"source" : [ "obj-60", 0 ],
									"destination" : [ "obj-30", 4 ],
									"hidden" : 0,
									"midpoints" : [  ]
								}

							}
, 							{
								"patchline" : 								{
									"source" : [ "obj-30", 0 ],
									"destination" : [ "obj-62", 0 ],
									"hidden" : 0,
									"midpoints" : [  ]
								}

							}
 ]
					}
,
					"saved_object_attributes" : 					{
						"default_fontface" : 0,
						"default_fontname" : "Arial",
						"fontname" : "Arial",
						"default_fontsize" : 12.0,
						"globalpatchername" : "",
						"fontface" : 0,
						"fontsize" : 12.0
					}

				}

			}
, 			{
				"box" : 				{
					"maxclass" : "newobj",
					"text" : "t f f",
					"outlettype" : [ "float", "float" ],
					"patching_rect" : [ 287.0, 348.0, 32.5, 20.0 ],
					"id" : "obj-56",
					"fontname" : "Arial",
					"numinlets" : 1,
					"numoutlets" : 2,
					"fontsize" : 12.0
				}

			}
, 			{
				"box" : 				{
					"maxclass" : "newobj",
					"text" : "gate 2 1",
					"outlettype" : [ "", "" ],
					"patching_rect" : [ 54.0, 444.0, 54.0, 20.0 ],
					"id" : "obj-55",
					"fontname" : "Arial",
					"numinlets" : 2,
					"numoutlets" : 2,
					"fontsize" : 12.0
				}

			}
, 			{
				"box" : 				{
					"maxclass" : "newobj",
					"text" : "p exponential",
					"outlettype" : [ "float" ],
					"patching_rect" : [ 54.0, 503.0, 135.5, 20.0 ],
					"id" : "obj-53",
					"fontname" : "Arial",
					"color" : [ 0.929412, 0.360784, 0.866667, 1.0 ],
					"numinlets" : 6,
					"numoutlets" : 1,
					"fontsize" : 12.0,
					"patcher" : 					{
						"fileversion" : 1,
						"appversion" : 						{
							"major" : 5,
							"minor" : 1,
							"revision" : 9
						}
,
						"rect" : [ 25.0, 69.0, 391.0, 532.0 ],
						"bglocked" : 0,
						"defrect" : [ 25.0, 69.0, 391.0, 532.0 ],
						"openrect" : [ 0.0, 0.0, 0.0, 0.0 ],
						"openinpresentation" : 0,
						"default_fontsize" : 12.0,
						"default_fontface" : 0,
						"default_fontname" : "Arial",
						"gridonopen" : 0,
						"gridsize" : [ 15.0, 15.0 ],
						"gridsnaponopen" : 0,
						"toolbarvisible" : 1,
						"boxanimatetime" : 200,
						"imprint" : 0,
						"enablehscroll" : 1,
						"enablevscroll" : 1,
						"devicewidth" : 0.0,
						"boxes" : [ 							{
								"box" : 								{
									"maxclass" : "newobj",
									"text" : "p sort",
									"outlettype" : [ "float", "float" ],
									"patching_rect" : [ 121.0, 104.0, 54.0, 20.0 ],
									"id" : "obj-12",
									"fontname" : "Arial",
									"color" : [ 0.403922, 0.109804, 0.701961, 1.0 ],
									"numinlets" : 2,
									"numoutlets" : 2,
									"fontsize" : 12.0,
									"patcher" : 									{
										"fileversion" : 1,
										"appversion" : 										{
											"major" : 5,
											"minor" : 1,
											"revision" : 9
										}
,
										"rect" : [ 50.0, 94.0, 139.0, 201.0 ],
										"bglocked" : 0,
										"defrect" : [ 50.0, 94.0, 139.0, 201.0 ],
										"openrect" : [ 0.0, 0.0, 0.0, 0.0 ],
										"openinpresentation" : 0,
										"default_fontsize" : 12.0,
										"default_fontface" : 0,
										"default_fontname" : "Arial",
										"gridonopen" : 0,
										"gridsize" : [ 15.0, 15.0 ],
										"gridsnaponopen" : 0,
										"toolbarvisible" : 1,
										"boxanimatetime" : 200,
										"imprint" : 0,
										"enablehscroll" : 1,
										"enablevscroll" : 1,
										"devicewidth" : 0.0,
										"boxes" : [ 											{
												"box" : 												{
													"maxclass" : "newobj",
													"text" : "unpack 0. 0.",
													"outlettype" : [ "float", "float" ],
													"patching_rect" : [ 24.0, 119.0, 76.0, 20.0 ],
													"id" : "obj-3",
													"fontname" : "Arial",
													"numinlets" : 1,
													"numoutlets" : 2,
													"fontsize" : 12.0
												}

											}
, 											{
												"box" : 												{
													"maxclass" : "newobj",
													"text" : "pak 0. 0.",
													"outlettype" : [ "" ],
													"patching_rect" : [ 24.0, 62.0, 57.0, 20.0 ],
													"id" : "obj-7",
													"fontname" : "Arial",
													"numinlets" : 2,
													"numoutlets" : 1,
													"fontsize" : 12.0
												}

											}
, 											{
												"box" : 												{
													"maxclass" : "newobj",
													"text" : "zl sort",
													"outlettype" : [ "", "" ],
													"patching_rect" : [ 24.0, 90.0, 43.0, 20.0 ],
													"id" : "obj-2",
													"fontname" : "Arial",
													"numinlets" : 2,
													"numoutlets" : 2,
													"fontsize" : 12.0
												}

											}
, 											{
												"box" : 												{
													"maxclass" : "inlet",
													"outlettype" : [ "float" ],
													"patching_rect" : [ 24.0, 24.0, 25.0, 25.0 ],
													"id" : "obj-4",
													"numinlets" : 0,
													"numoutlets" : 1,
													"comment" : ""
												}

											}
, 											{
												"box" : 												{
													"maxclass" : "inlet",
													"outlettype" : [ "float" ],
													"patching_rect" : [ 62.0, 24.0, 25.0, 25.0 ],
													"id" : "obj-5",
													"numinlets" : 0,
													"numoutlets" : 1,
													"comment" : ""
												}

											}
, 											{
												"box" : 												{
													"maxclass" : "outlet",
													"patching_rect" : [ 24.0, 148.5, 25.0, 25.0 ],
													"id" : "obj-10",
													"numinlets" : 1,
													"numoutlets" : 0,
													"comment" : ""
												}

											}
, 											{
												"box" : 												{
													"maxclass" : "outlet",
													"patching_rect" : [ 81.0, 148.5, 25.0, 25.0 ],
													"id" : "obj-11",
													"numinlets" : 1,
													"numoutlets" : 0,
													"comment" : ""
												}

											}
 ],
										"lines" : [ 											{
												"patchline" : 												{
													"source" : [ "obj-7", 0 ],
													"destination" : [ "obj-2", 0 ],
													"hidden" : 0,
													"midpoints" : [  ]
												}

											}
, 											{
												"patchline" : 												{
													"source" : [ "obj-2", 0 ],
													"destination" : [ "obj-3", 0 ],
													"hidden" : 0,
													"midpoints" : [  ]
												}

											}
, 											{
												"patchline" : 												{
													"source" : [ "obj-4", 0 ],
													"destination" : [ "obj-7", 0 ],
													"hidden" : 0,
													"midpoints" : [  ]
												}

											}
, 											{
												"patchline" : 												{
													"source" : [ "obj-5", 0 ],
													"destination" : [ "obj-7", 1 ],
													"hidden" : 0,
													"midpoints" : [  ]
												}

											}
, 											{
												"patchline" : 												{
													"source" : [ "obj-3", 0 ],
													"destination" : [ "obj-10", 0 ],
													"hidden" : 0,
													"midpoints" : [  ]
												}

											}
, 											{
												"patchline" : 												{
													"source" : [ "obj-3", 1 ],
													"destination" : [ "obj-11", 0 ],
													"hidden" : 0,
													"midpoints" : [  ]
												}

											}
 ]
									}
,
									"saved_object_attributes" : 									{
										"default_fontface" : 0,
										"default_fontname" : "Arial",
										"fontname" : "Arial",
										"default_fontsize" : 12.0,
										"globalpatchername" : "",
										"fontface" : 0,
										"fontsize" : 12.0
									}

								}

							}
, 							{
								"box" : 								{
									"maxclass" : "newobj",
									"text" : "t f f",
									"outlettype" : [ "float", "float" ],
									"patching_rect" : [ 191.0, 276.0, 32.5, 20.0 ],
									"id" : "obj-6",
									"fontname" : "Arial",
									"numinlets" : 1,
									"numoutlets" : 2,
									"fontsize" : 12.0
								}

							}
, 							{
								"box" : 								{
									"maxclass" : "newobj",
									"text" : "p isInverted?",
									"outlettype" : [ "" ],
									"patching_rect" : [ 50.0, 340.0, 79.0, 20.0 ],
									"id" : "obj-87",
									"fontname" : "Arial",
									"color" : [ 0.403922, 0.109804, 0.701961, 1.0 ],
									"numinlets" : 4,
									"numoutlets" : 1,
									"fontsize" : 12.0,
									"patcher" : 									{
										"fileversion" : 1,
										"appversion" : 										{
											"major" : 5,
											"minor" : 1,
											"revision" : 9
										}
,
										"rect" : [ 479.0, 786.0, 219.0, 297.0 ],
										"bglocked" : 0,
										"defrect" : [ 479.0, 786.0, 219.0, 297.0 ],
										"openrect" : [ 0.0, 0.0, 0.0, 0.0 ],
										"openinpresentation" : 0,
										"default_fontsize" : 12.0,
										"default_fontface" : 0,
										"default_fontname" : "Arial",
										"gridonopen" : 0,
										"gridsize" : [ 15.0, 15.0 ],
										"gridsnaponopen" : 0,
										"toolbarvisible" : 1,
										"boxanimatetime" : 200,
										"imprint" : 0,
										"enablehscroll" : 1,
										"enablevscroll" : 1,
										"devicewidth" : 0.0,
										"boxes" : [ 											{
												"box" : 												{
													"maxclass" : "newobj",
													"text" : "sel 0 1",
													"outlettype" : [ "bang", "bang", "" ],
													"patching_rect" : [ 20.0, 179.0, 88.0, 20.0 ],
													"id" : "obj-6",
													"fontname" : "Arial",
													"numinlets" : 1,
													"numoutlets" : 3,
													"fontsize" : 12.0
												}

											}
, 											{
												"box" : 												{
													"maxclass" : "newobj",
													"text" : "* 0.",
													"outlettype" : [ "float" ],
													"patching_rect" : [ 20.0, 123.0, 32.5, 20.0 ],
													"id" : "obj-5",
													"fontname" : "Arial",
													"numinlets" : 2,
													"numoutlets" : 1,
													"fontsize" : 12.0
												}

											}
, 											{
												"box" : 												{
													"maxclass" : "message",
													"text" : "2",
													"outlettype" : [ "" ],
													"patching_rect" : [ 20.0, 215.0, 32.5, 18.0 ],
													"id" : "obj-63",
													"fontname" : "Arial",
													"numinlets" : 2,
													"numoutlets" : 1,
													"fontsize" : 12.0
												}

											}
, 											{
												"box" : 												{
													"maxclass" : "message",
													"text" : "1",
													"outlettype" : [ "" ],
													"patching_rect" : [ 55.0, 215.0, 32.5, 18.0 ],
													"id" : "obj-62",
													"fontname" : "Arial",
													"numinlets" : 2,
													"numoutlets" : 1,
													"fontsize" : 12.0
												}

											}
, 											{
												"box" : 												{
													"maxclass" : "newobj",
													"text" : ">= 0.",
													"outlettype" : [ "int" ],
													"patching_rect" : [ 20.0, 151.0, 38.0, 20.0 ],
													"id" : "obj-53",
													"fontname" : "Arial",
													"numinlets" : 2,
													"numoutlets" : 1,
													"fontsize" : 12.0
												}

											}
, 											{
												"box" : 												{
													"maxclass" : "newobj",
													"text" : "!- 0.",
													"outlettype" : [ "float" ],
													"patching_rect" : [ 123.0, 88.0, 70.5, 20.0 ],
													"id" : "obj-52",
													"fontname" : "Arial",
													"numinlets" : 2,
													"numoutlets" : 1,
													"fontsize" : 12.0
												}

											}
, 											{
												"box" : 												{
													"maxclass" : "newobj",
													"text" : "!- 0.",
													"outlettype" : [ "float" ],
													"patching_rect" : [ 20.0, 88.0, 70.5, 20.0 ],
													"id" : "obj-51",
													"fontname" : "Arial",
													"numinlets" : 2,
													"numoutlets" : 1,
													"fontsize" : 12.0
												}

											}
, 											{
												"box" : 												{
													"maxclass" : "newobj",
													"text" : "bondo 4",
													"outlettype" : [ "", "", "", "" ],
													"patching_rect" : [ 20.0, 57.0, 173.5, 20.0 ],
													"id" : "obj-50",
													"fontname" : "Arial",
													"numinlets" : 4,
													"numoutlets" : 4,
													"fontsize" : 12.0
												}

											}
, 											{
												"box" : 												{
													"maxclass" : "inlet",
													"outlettype" : [ "float" ],
													"patching_rect" : [ 20.0, 20.0, 25.0, 25.0 ],
													"id" : "obj-82",
													"numinlets" : 0,
													"numoutlets" : 1,
													"comment" : ""
												}

											}
, 											{
												"box" : 												{
													"maxclass" : "inlet",
													"outlettype" : [ "float" ],
													"patching_rect" : [ 72.0, 20.0, 25.0, 25.0 ],
													"id" : "obj-83",
													"numinlets" : 0,
													"numoutlets" : 1,
													"comment" : ""
												}

											}
, 											{
												"box" : 												{
													"maxclass" : "inlet",
													"outlettype" : [ "float" ],
													"patching_rect" : [ 123.0, 20.0, 25.0, 25.0 ],
													"id" : "obj-84",
													"numinlets" : 0,
													"numoutlets" : 1,
													"comment" : ""
												}

											}
, 											{
												"box" : 												{
													"maxclass" : "inlet",
													"outlettype" : [ "float" ],
													"patching_rect" : [ 175.0, 20.0, 25.0, 25.0 ],
													"id" : "obj-85",
													"numinlets" : 0,
													"numoutlets" : 1,
													"comment" : ""
												}

											}
, 											{
												"box" : 												{
													"maxclass" : "outlet",
													"patching_rect" : [ 20.0, 252.0, 25.0, 25.0 ],
													"id" : "obj-86",
													"numinlets" : 1,
													"numoutlets" : 0,
													"comment" : ""
												}

											}
 ],
										"lines" : [ 											{
												"patchline" : 												{
													"source" : [ "obj-6", 1 ],
													"destination" : [ "obj-62", 0 ],
													"hidden" : 0,
													"midpoints" : [  ]
												}

											}
, 											{
												"patchline" : 												{
													"source" : [ "obj-6", 0 ],
													"destination" : [ "obj-63", 0 ],
													"hidden" : 0,
													"midpoints" : [  ]
												}

											}
, 											{
												"patchline" : 												{
													"source" : [ "obj-53", 0 ],
													"destination" : [ "obj-6", 0 ],
													"hidden" : 0,
													"midpoints" : [  ]
												}

											}
, 											{
												"patchline" : 												{
													"source" : [ "obj-5", 0 ],
													"destination" : [ "obj-53", 0 ],
													"hidden" : 0,
													"midpoints" : [  ]
												}

											}
, 											{
												"patchline" : 												{
													"source" : [ "obj-51", 0 ],
													"destination" : [ "obj-5", 0 ],
													"hidden" : 0,
													"midpoints" : [  ]
												}

											}
, 											{
												"patchline" : 												{
													"source" : [ "obj-52", 0 ],
													"destination" : [ "obj-5", 1 ],
													"hidden" : 0,
													"midpoints" : [ 132.5, 116.5, 43.0, 116.5 ]
												}

											}
, 											{
												"patchline" : 												{
													"source" : [ "obj-63", 0 ],
													"destination" : [ "obj-86", 0 ],
													"hidden" : 0,
													"midpoints" : [  ]
												}

											}
, 											{
												"patchline" : 												{
													"source" : [ "obj-62", 0 ],
													"destination" : [ "obj-86", 0 ],
													"hidden" : 0,
													"midpoints" : [  ]
												}

											}
, 											{
												"patchline" : 												{
													"source" : [ "obj-85", 0 ],
													"destination" : [ "obj-50", 3 ],
													"hidden" : 0,
													"midpoints" : [  ]
												}

											}
, 											{
												"patchline" : 												{
													"source" : [ "obj-84", 0 ],
													"destination" : [ "obj-50", 2 ],
													"hidden" : 0,
													"midpoints" : [  ]
												}

											}
, 											{
												"patchline" : 												{
													"source" : [ "obj-83", 0 ],
													"destination" : [ "obj-50", 1 ],
													"hidden" : 0,
													"midpoints" : [  ]
												}

											}
, 											{
												"patchline" : 												{
													"source" : [ "obj-82", 0 ],
													"destination" : [ "obj-50", 0 ],
													"hidden" : 0,
													"midpoints" : [  ]
												}

											}
, 											{
												"patchline" : 												{
													"source" : [ "obj-50", 3 ],
													"destination" : [ "obj-52", 1 ],
													"hidden" : 0,
													"midpoints" : [  ]
												}

											}
, 											{
												"patchline" : 												{
													"source" : [ "obj-50", 2 ],
													"destination" : [ "obj-52", 0 ],
													"hidden" : 0,
													"midpoints" : [  ]
												}

											}
, 											{
												"patchline" : 												{
													"source" : [ "obj-50", 0 ],
													"destination" : [ "obj-51", 0 ],
													"hidden" : 0,
													"midpoints" : [  ]
												}

											}
, 											{
												"patchline" : 												{
													"source" : [ "obj-50", 1 ],
													"destination" : [ "obj-51", 1 ],
													"hidden" : 0,
													"midpoints" : [  ]
												}

											}
 ]
									}
,
									"saved_object_attributes" : 									{
										"default_fontface" : 0,
										"default_fontname" : "Arial",
										"fontname" : "Arial",
										"default_fontsize" : 12.0,
										"globalpatchername" : "",
										"fontface" : 0,
										"fontsize" : 12.0
									}

								}

							}
, 							{
								"box" : 								{
									"maxclass" : "newobj",
									"text" : "t f f",
									"outlettype" : [ "float", "float" ],
									"patching_rect" : [ 226.0, 76.0, 32.5, 20.0 ],
									"id" : "obj-81",
									"fontname" : "Arial",
									"numinlets" : 1,
									"numoutlets" : 2,
									"fontsize" : 12.0
								}

							}
, 							{
								"box" : 								{
									"maxclass" : "newobj",
									"text" : "t f f",
									"outlettype" : [ "float", "float" ],
									"patching_rect" : [ 191.0, 76.0, 32.5, 20.0 ],
									"id" : "obj-80",
									"fontname" : "Arial",
									"numinlets" : 1,
									"numoutlets" : 2,
									"fontsize" : 12.0
								}

							}
, 							{
								"box" : 								{
									"maxclass" : "newobj",
									"text" : "t f f",
									"outlettype" : [ "float", "float" ],
									"patching_rect" : [ 156.0, 76.0, 32.5, 20.0 ],
									"id" : "obj-77",
									"fontname" : "Arial",
									"numinlets" : 1,
									"numoutlets" : 2,
									"fontsize" : 12.0
								}

							}
, 							{
								"box" : 								{
									"maxclass" : "newobj",
									"text" : "t f f",
									"outlettype" : [ "float", "float" ],
									"patching_rect" : [ 121.0, 76.0, 32.5, 20.0 ],
									"id" : "obj-76",
									"fontname" : "Arial",
									"numinlets" : 1,
									"numoutlets" : 2,
									"fontsize" : 12.0
								}

							}
, 							{
								"box" : 								{
									"maxclass" : "newobj",
									"text" : "minimum 0.",
									"outlettype" : [ "float", "int" ],
									"patching_rect" : [ 238.0, 276.0, 73.0, 20.0 ],
									"id" : "obj-75",
									"fontname" : "Arial",
									"numinlets" : 2,
									"numoutlets" : 2,
									"fontsize" : 12.0
								}

							}
, 							{
								"box" : 								{
									"maxclass" : "newobj",
									"text" : "!- 1.",
									"outlettype" : [ "float" ],
									"patching_rect" : [ 85.0, 398.0, 32.5, 20.0 ],
									"id" : "obj-73",
									"fontname" : "Arial",
									"numinlets" : 2,
									"numoutlets" : 1,
									"fontsize" : 12.0
								}

							}
, 							{
								"box" : 								{
									"maxclass" : "newobj",
									"text" : "gate 2 1",
									"outlettype" : [ "", "" ],
									"patching_rect" : [ 50.0, 369.0, 54.0, 20.0 ],
									"id" : "obj-72",
									"fontname" : "Arial",
									"numinlets" : 2,
									"numoutlets" : 2,
									"fontsize" : 12.0
								}

							}
, 							{
								"box" : 								{
									"maxclass" : "newobj",
									"text" : "expr abs($f2-$f1)",
									"outlettype" : [ "" ],
									"patching_rect" : [ 191.0, 248.0, 102.0, 20.0 ],
									"id" : "obj-16",
									"fontname" : "Arial",
									"numinlets" : 2,
									"numoutlets" : 1,
									"fontsize" : 12.0
								}

							}
, 							{
								"box" : 								{
									"maxclass" : "newobj",
									"text" : "t l l",
									"outlettype" : [ "", "" ],
									"patching_rect" : [ 191.0, 221.0, 65.5, 20.0 ],
									"id" : "obj-15",
									"fontname" : "Arial",
									"numinlets" : 1,
									"numoutlets" : 2,
									"fontsize" : 12.0
								}

							}
, 							{
								"box" : 								{
									"maxclass" : "newobj",
									"text" : "pak 0. 0.",
									"outlettype" : [ "" ],
									"patching_rect" : [ 191.0, 193.0, 57.0, 20.0 ],
									"id" : "obj-14",
									"fontname" : "Arial",
									"numinlets" : 2,
									"numoutlets" : 1,
									"fontsize" : 12.0
								}

							}
, 							{
								"box" : 								{
									"maxclass" : "newobj",
									"text" : "+ 0.",
									"outlettype" : [ "float" ],
									"patching_rect" : [ 50.0, 441.0, 32.5, 20.0 ],
									"id" : "obj-9",
									"fontname" : "Arial",
									"numinlets" : 2,
									"numoutlets" : 1,
									"fontsize" : 12.0
								}

							}
, 							{
								"box" : 								{
									"maxclass" : "newobj",
									"text" : "* 1.",
									"outlettype" : [ "float" ],
									"patching_rect" : [ 85.0, 311.0, 32.5, 20.0 ],
									"id" : "obj-8",
									"fontname" : "Arial",
									"numinlets" : 2,
									"numoutlets" : 1,
									"fontsize" : 12.0
								}

							}
, 							{
								"box" : 								{
									"maxclass" : "newobj",
									"text" : "pow",
									"outlettype" : [ "float" ],
									"patching_rect" : [ 85.0, 242.0, 33.0, 20.0 ],
									"id" : "obj-18",
									"fontname" : "Arial",
									"numinlets" : 2,
									"numoutlets" : 1,
									"fontsize" : 12.0
								}

							}
, 							{
								"box" : 								{
									"maxclass" : "newobj",
									"text" : "scale 0. 0. 0. 1.",
									"outlettype" : [ "" ],
									"patching_rect" : [ 85.0, 136.0, 197.0, 20.0 ],
									"id" : "obj-1",
									"fontname" : "Arial",
									"numinlets" : 6,
									"numoutlets" : 1,
									"fontsize" : 12.0
								}

							}
, 							{
								"box" : 								{
									"maxclass" : "inlet",
									"outlettype" : [ "" ],
									"patching_rect" : [ 85.0, 40.0, 25.0, 25.0 ],
									"id" : "obj-40",
									"numinlets" : 0,
									"numoutlets" : 1,
									"comment" : ""
								}

							}
, 							{
								"box" : 								{
									"maxclass" : "inlet",
									"outlettype" : [ "float" ],
									"patching_rect" : [ 261.0, 40.0, 25.0, 25.0 ],
									"id" : "obj-46",
									"numinlets" : 0,
									"numoutlets" : 1,
									"comment" : ""
								}

							}
, 							{
								"box" : 								{
									"maxclass" : "inlet",
									"outlettype" : [ "float" ],
									"patching_rect" : [ 121.0, 40.0, 25.0, 25.0 ],
									"id" : "obj-48",
									"numinlets" : 0,
									"numoutlets" : 1,
									"comment" : ""
								}

							}
, 							{
								"box" : 								{
									"maxclass" : "inlet",
									"outlettype" : [ "float" ],
									"patching_rect" : [ 156.0, 40.0, 25.0, 25.0 ],
									"id" : "obj-49",
									"numinlets" : 0,
									"numoutlets" : 1,
									"comment" : ""
								}

							}
, 							{
								"box" : 								{
									"maxclass" : "inlet",
									"outlettype" : [ "float" ],
									"patching_rect" : [ 191.0, 40.0, 25.0, 25.0 ],
									"id" : "obj-50",
									"numinlets" : 0,
									"numoutlets" : 1,
									"comment" : ""
								}

							}
, 							{
								"box" : 								{
									"maxclass" : "inlet",
									"outlettype" : [ "float" ],
									"patching_rect" : [ 226.0, 40.0, 25.0, 25.0 ],
									"id" : "obj-51",
									"numinlets" : 0,
									"numoutlets" : 1,
									"comment" : ""
								}

							}
, 							{
								"box" : 								{
									"maxclass" : "outlet",
									"patching_rect" : [ 50.0, 480.0, 25.0, 25.0 ],
									"id" : "obj-52",
									"numinlets" : 1,
									"numoutlets" : 0,
									"comment" : ""
								}

							}
 ],
						"lines" : [ 							{
								"patchline" : 								{
									"source" : [ "obj-76", 0 ],
									"destination" : [ "obj-12", 0 ],
									"hidden" : 0,
									"midpoints" : [  ]
								}

							}
, 							{
								"patchline" : 								{
									"source" : [ "obj-77", 0 ],
									"destination" : [ "obj-12", 1 ],
									"hidden" : 0,
									"midpoints" : [  ]
								}

							}
, 							{
								"patchline" : 								{
									"source" : [ "obj-12", 0 ],
									"destination" : [ "obj-1", 1 ],
									"hidden" : 0,
									"midpoints" : [  ]
								}

							}
, 							{
								"patchline" : 								{
									"source" : [ "obj-12", 1 ],
									"destination" : [ "obj-1", 2 ],
									"hidden" : 0,
									"midpoints" : [  ]
								}

							}
, 							{
								"patchline" : 								{
									"source" : [ "obj-8", 0 ],
									"destination" : [ "obj-72", 1 ],
									"hidden" : 0,
									"midpoints" : [  ]
								}

							}
, 							{
								"patchline" : 								{
									"source" : [ "obj-18", 0 ],
									"destination" : [ "obj-8", 0 ],
									"hidden" : 0,
									"midpoints" : [  ]
								}

							}
, 							{
								"patchline" : 								{
									"source" : [ "obj-1", 0 ],
									"destination" : [ "obj-18", 0 ],
									"hidden" : 0,
									"midpoints" : [  ]
								}

							}
, 							{
								"patchline" : 								{
									"source" : [ "obj-75", 0 ],
									"destination" : [ "obj-9", 1 ],
									"hidden" : 0,
									"midpoints" : [ 247.5, 303.0, 305.0, 303.0, 305.0, 436.0, 73.0, 436.0 ]
								}

							}
, 							{
								"patchline" : 								{
									"source" : [ "obj-72", 1 ],
									"destination" : [ "obj-73", 0 ],
									"hidden" : 0,
									"midpoints" : [  ]
								}

							}
, 							{
								"patchline" : 								{
									"source" : [ "obj-73", 0 ],
									"destination" : [ "obj-9", 0 ],
									"hidden" : 0,
									"midpoints" : [  ]
								}

							}
, 							{
								"patchline" : 								{
									"source" : [ "obj-72", 0 ],
									"destination" : [ "obj-9", 0 ],
									"hidden" : 0,
									"midpoints" : [  ]
								}

							}
, 							{
								"patchline" : 								{
									"source" : [ "obj-87", 0 ],
									"destination" : [ "obj-72", 0 ],
									"hidden" : 0,
									"midpoints" : [  ]
								}

							}
, 							{
								"patchline" : 								{
									"source" : [ "obj-76", 1 ],
									"destination" : [ "obj-87", 0 ],
									"hidden" : 0,
									"color" : [ 0.403922, 0.109804, 0.701961, 0.231373 ],
									"midpoints" : [  ]
								}

							}
, 							{
								"patchline" : 								{
									"source" : [ "obj-77", 1 ],
									"destination" : [ "obj-87", 1 ],
									"hidden" : 0,
									"color" : [ 0.403922, 0.109804, 0.701961, 0.231373 ],
									"midpoints" : [  ]
								}

							}
, 							{
								"patchline" : 								{
									"source" : [ "obj-80", 1 ],
									"destination" : [ "obj-87", 2 ],
									"hidden" : 0,
									"color" : [ 0.403922, 0.109804, 0.701961, 0.231373 ],
									"midpoints" : [  ]
								}

							}
, 							{
								"patchline" : 								{
									"source" : [ "obj-80", 0 ],
									"destination" : [ "obj-14", 0 ],
									"hidden" : 0,
									"midpoints" : [ 200.5, 114.0, 293.0, 114.0, 293.0, 174.0, 200.5, 174.0 ]
								}

							}
, 							{
								"patchline" : 								{
									"source" : [ "obj-81", 1 ],
									"destination" : [ "obj-87", 3 ],
									"hidden" : 0,
									"color" : [ 0.403922, 0.109804, 0.701961, 0.231373 ],
									"midpoints" : [  ]
								}

							}
, 							{
								"patchline" : 								{
									"source" : [ "obj-81", 0 ],
									"destination" : [ "obj-14", 1 ],
									"hidden" : 0,
									"midpoints" : [ 235.5, 106.0, 300.0, 106.0, 300.0, 181.0, 238.5, 181.0 ]
								}

							}
, 							{
								"patchline" : 								{
									"source" : [ "obj-15", 0 ],
									"destination" : [ "obj-16", 0 ],
									"hidden" : 0,
									"midpoints" : [  ]
								}

							}
, 							{
								"patchline" : 								{
									"source" : [ "obj-14", 0 ],
									"destination" : [ "obj-15", 0 ],
									"hidden" : 0,
									"midpoints" : [  ]
								}

							}
, 							{
								"patchline" : 								{
									"source" : [ "obj-15", 1 ],
									"destination" : [ "obj-75", 0 ],
									"hidden" : 0,
									"midpoints" : [  ]
								}

							}
, 							{
								"patchline" : 								{
									"source" : [ "obj-16", 0 ],
									"destination" : [ "obj-6", 0 ],
									"hidden" : 0,
									"midpoints" : [  ]
								}

							}
, 							{
								"patchline" : 								{
									"source" : [ "obj-6", 1 ],
									"destination" : [ "obj-73", 1 ],
									"hidden" : 0,
									"midpoints" : [ 214.0, 392.0, 108.0, 392.0 ]
								}

							}
, 							{
								"patchline" : 								{
									"source" : [ "obj-6", 0 ],
									"destination" : [ "obj-8", 1 ],
									"hidden" : 0,
									"midpoints" : [ 200.5, 303.0, 108.0, 303.0 ]
								}

							}
, 							{
								"patchline" : 								{
									"source" : [ "obj-40", 0 ],
									"destination" : [ "obj-1", 0 ],
									"hidden" : 0,
									"midpoints" : [  ]
								}

							}
, 							{
								"patchline" : 								{
									"source" : [ "obj-46", 0 ],
									"destination" : [ "obj-18", 1 ],
									"hidden" : 0,
									"midpoints" : [  ]
								}

							}
, 							{
								"patchline" : 								{
									"source" : [ "obj-48", 0 ],
									"destination" : [ "obj-76", 0 ],
									"hidden" : 0,
									"midpoints" : [  ]
								}

							}
, 							{
								"patchline" : 								{
									"source" : [ "obj-49", 0 ],
									"destination" : [ "obj-77", 0 ],
									"hidden" : 0,
									"midpoints" : [  ]
								}

							}
, 							{
								"patchline" : 								{
									"source" : [ "obj-50", 0 ],
									"destination" : [ "obj-80", 0 ],
									"hidden" : 0,
									"midpoints" : [  ]
								}

							}
, 							{
								"patchline" : 								{
									"source" : [ "obj-51", 0 ],
									"destination" : [ "obj-81", 0 ],
									"hidden" : 0,
									"midpoints" : [  ]
								}

							}
, 							{
								"patchline" : 								{
									"source" : [ "obj-9", 0 ],
									"destination" : [ "obj-52", 0 ],
									"hidden" : 0,
									"midpoints" : [  ]
								}

							}
 ]
					}
,
					"saved_object_attributes" : 					{
						"default_fontface" : 0,
						"default_fontname" : "Arial",
						"fontname" : "Arial",
						"default_fontsize" : 12.0,
						"globalpatchername" : "",
						"fontface" : 0,
						"fontsize" : 12.0
					}

				}

			}
, 			{
				"box" : 				{
					"maxclass" : "newobj",
					"text" : "t b l",
					"outlettype" : [ "bang", "" ],
					"patching_rect" : [ 244.0, 102.0, 32.0, 20.0 ],
					"id" : "obj-39",
					"fontname" : "Arial",
					"numinlets" : 1,
					"numoutlets" : 2,
					"fontsize" : 12.0
				}

			}
, 			{
				"box" : 				{
					"maxclass" : "newobj",
					"text" : "t f f",
					"outlettype" : [ "float", "float" ],
					"patching_rect" : [ 230.0, 348.0, 32.5, 20.0 ],
					"id" : "obj-37",
					"fontname" : "Arial",
					"numinlets" : 1,
					"numoutlets" : 2,
					"fontsize" : 12.0
				}

			}
, 			{
				"box" : 				{
					"maxclass" : "newobj",
					"text" : "t f f",
					"outlettype" : [ "float", "float" ],
					"patching_rect" : [ 195.0, 348.0, 32.5, 20.0 ],
					"id" : "obj-36",
					"fontname" : "Arial",
					"numinlets" : 1,
					"numoutlets" : 2,
					"fontsize" : 12.0
				}

			}
, 			{
				"box" : 				{
					"maxclass" : "newobj",
					"text" : "t f f",
					"outlettype" : [ "float", "float" ],
					"patching_rect" : [ 160.0, 348.0, 32.5, 20.0 ],
					"id" : "obj-35",
					"fontname" : "Arial",
					"numinlets" : 1,
					"numoutlets" : 2,
					"fontsize" : 12.0
				}

			}
, 			{
				"box" : 				{
					"maxclass" : "newobj",
					"text" : "t f f",
					"outlettype" : [ "float", "float" ],
					"patching_rect" : [ 125.0, 348.0, 32.5, 20.0 ],
					"id" : "obj-34",
					"fontname" : "Arial",
					"numinlets" : 1,
					"numoutlets" : 2,
					"fontsize" : 12.0
				}

			}
, 			{
				"box" : 				{
					"maxclass" : "newobj",
					"text" : "unpack 0. 0. 0. 0. 0.",
					"outlettype" : [ "float", "float", "float", "float", "float" ],
					"patching_rect" : [ 33.0, 157.0, 116.0, 20.0 ],
					"id" : "obj-33",
					"fontname" : "Arial",
					"numinlets" : 1,
					"numoutlets" : 5,
					"fontsize" : 12.0
				}

			}
, 			{
				"box" : 				{
					"maxclass" : "newobj",
					"text" : "t 2",
					"outlettype" : [ "int" ],
					"patching_rect" : [ 54.0, 407.0, 24.0, 20.0 ],
					"id" : "obj-32",
					"fontname" : "Arial",
					"numinlets" : 1,
					"numoutlets" : 1,
					"fontsize" : 12.0
				}

			}
, 			{
				"box" : 				{
					"maxclass" : "newobj",
					"text" : "t 1",
					"outlettype" : [ "int" ],
					"patching_rect" : [ 23.0, 407.0, 24.0, 20.0 ],
					"id" : "obj-31",
					"fontname" : "Arial",
					"numinlets" : 1,
					"numoutlets" : 1,
					"fontsize" : 12.0
				}

			}
, 			{
				"box" : 				{
					"maxclass" : "newobj",
					"text" : "route exp log",
					"outlettype" : [ "", "", "" ],
					"patching_rect" : [ 23.0, 377.0, 80.0, 20.0 ],
					"id" : "obj-26",
					"fontname" : "Arial",
					"numinlets" : 1,
					"numoutlets" : 3,
					"fontsize" : 12.0
				}

			}
, 			{
				"box" : 				{
					"maxclass" : "newobj",
					"text" : "route mode",
					"outlettype" : [ "", "" ],
					"patching_rect" : [ 23.0, 348.0, 85.0, 20.0 ],
					"id" : "obj-25",
					"fontname" : "Arial",
					"numinlets" : 1,
					"numoutlets" : 2,
					"fontsize" : 12.0
				}

			}
, 			{
				"box" : 				{
					"maxclass" : "newobj",
					"text" : "route mode",
					"outlettype" : [ "", "" ],
					"patching_rect" : [ 244.0, 75.0, 71.0, 20.0 ],
					"id" : "obj-23",
					"fontname" : "Arial",
					"numinlets" : 1,
					"numoutlets" : 2,
					"fontsize" : 12.0
				}

			}
, 			{
				"box" : 				{
					"maxclass" : "newobj",
					"text" : "zl reg",
					"outlettype" : [ "", "" ],
					"patching_rect" : [ 33.0, 132.0, 40.0, 20.0 ],
					"id" : "obj-22",
					"fontname" : "Arial",
					"numinlets" : 2,
					"numoutlets" : 2,
					"fontsize" : 12.0
				}

			}
, 			{
				"box" : 				{
					"maxclass" : "newobj",
					"text" : "patcherargs 0. 0. 0. 0. 1. @mode exp",
					"outlettype" : [ "", "" ],
					"patching_rect" : [ 54.0, 49.0, 209.0, 20.0 ],
					"id" : "obj-17",
					"fontname" : "Arial",
					"numinlets" : 1,
					"numoutlets" : 2,
					"fontsize" : 12.0
				}

			}
, 			{
				"box" : 				{
					"maxclass" : "newobj",
					"text" : "abs 0.",
					"outlettype" : [ "float" ],
					"patching_rect" : [ 447.0, 318.0, 43.0, 20.0 ],
					"id" : "obj-10",
					"fontname" : "Arial",
					"numinlets" : 1,
					"numoutlets" : 1,
					"fontsize" : 12.0
				}

			}
, 			{
				"box" : 				{
					"maxclass" : "newobj",
					"text" : "if $f1 > 0. then $f1 else out2 $f1",
					"outlettype" : [ "", "" ],
					"patching_rect" : [ 287.0, 293.0, 179.0, 20.0 ],
					"id" : "obj-7",
					"fontname" : "Arial",
					"numinlets" : 1,
					"numoutlets" : 2,
					"fontsize" : 12.0
				}

			}
, 			{
				"box" : 				{
					"maxclass" : "inlet",
					"outlettype" : [ "" ],
					"patching_rect" : [ 230.0, 207.0, 25.0, 25.0 ],
					"id" : "obj-5",
					"numinlets" : 0,
					"numoutlets" : 1,
					"comment" : "high output value"
				}

			}
, 			{
				"box" : 				{
					"maxclass" : "inlet",
					"outlettype" : [ "" ],
					"patching_rect" : [ 195.0, 207.0, 25.0, 25.0 ],
					"id" : "obj-4",
					"numinlets" : 0,
					"numoutlets" : 1,
					"comment" : "low output value"
				}

			}
, 			{
				"box" : 				{
					"maxclass" : "inlet",
					"outlettype" : [ "" ],
					"patching_rect" : [ 160.0, 207.0, 25.0, 25.0 ],
					"id" : "obj-3",
					"numinlets" : 0,
					"numoutlets" : 1,
					"comment" : "high input value"
				}

			}
, 			{
				"box" : 				{
					"maxclass" : "inlet",
					"outlettype" : [ "" ],
					"patching_rect" : [ 125.0, 207.0, 25.0, 25.0 ],
					"id" : "obj-2",
					"numinlets" : 0,
					"numoutlets" : 1,
					"comment" : "low input value"
				}

			}
, 			{
				"box" : 				{
					"maxclass" : "outlet",
					"patching_rect" : [ 54.0, 551.0, 25.0, 25.0 ],
					"id" : "obj-47",
					"numinlets" : 1,
					"numoutlets" : 0,
					"comment" : "scaled range"
				}

			}
, 			{
				"box" : 				{
					"maxclass" : "newobj",
					"text" : "if $f1 == 0. then 1. else $f1",
					"outlettype" : [ "" ],
					"patching_rect" : [ 287.0, 266.0, 153.0, 20.0 ],
					"id" : "obj-45",
					"fontname" : "Arial",
					"numinlets" : 1,
					"numoutlets" : 1,
					"fontsize" : 12.0
				}

			}
, 			{
				"box" : 				{
					"maxclass" : "inlet",
					"outlettype" : [ "" ],
					"patching_rect" : [ 23.0, 207.0, 25.0, 25.0 ],
					"id" : "obj-44",
					"numinlets" : 0,
					"numoutlets" : 1,
					"comment" : "(int/float) range to be scaled, mode exp sets to exponential scale / mode log sets to logarithmic scale"
				}

			}
, 			{
				"box" : 				{
					"maxclass" : "inlet",
					"outlettype" : [ "" ],
					"patching_rect" : [ 287.0, 207.0, 25.0, 25.0 ],
					"id" : "obj-43",
					"numinlets" : 0,
					"numoutlets" : 1,
					"comment" : "exponent / logarithmic base (default 1.)"
				}

			}
 ],
		"lines" : [ 			{
				"patchline" : 				{
					"source" : [ "obj-63", 0 ],
					"destination" : [ "obj-47", 0 ],
					"hidden" : 0,
					"midpoints" : [ 226.5, 533.0, 63.5, 533.0 ]
				}

			}
, 			{
				"patchline" : 				{
					"source" : [ "obj-56", 1 ],
					"destination" : [ "obj-63", 5 ],
					"hidden" : 0,
					"midpoints" : [  ]
				}

			}
, 			{
				"patchline" : 				{
					"source" : [ "obj-37", 1 ],
					"destination" : [ "obj-63", 4 ],
					"hidden" : 0,
					"midpoints" : [  ]
				}

			}
, 			{
				"patchline" : 				{
					"source" : [ "obj-36", 1 ],
					"destination" : [ "obj-63", 3 ],
					"hidden" : 0,
					"midpoints" : [  ]
				}

			}
, 			{
				"patchline" : 				{
					"source" : [ "obj-35", 1 ],
					"destination" : [ "obj-63", 2 ],
					"hidden" : 0,
					"midpoints" : [  ]
				}

			}
, 			{
				"patchline" : 				{
					"source" : [ "obj-34", 1 ],
					"destination" : [ "obj-63", 1 ],
					"hidden" : 0,
					"midpoints" : [  ]
				}

			}
, 			{
				"patchline" : 				{
					"source" : [ "obj-55", 1 ],
					"destination" : [ "obj-63", 0 ],
					"hidden" : 0,
					"midpoints" : [ 98.5, 489.0, 226.5, 489.0 ]
				}

			}
, 			{
				"patchline" : 				{
					"source" : [ "obj-17", 0 ],
					"destination" : [ "obj-22", 1 ],
					"hidden" : 0,
					"midpoints" : [  ]
				}

			}
, 			{
				"patchline" : 				{
					"source" : [ "obj-17", 1 ],
					"destination" : [ "obj-23", 0 ],
					"hidden" : 0,
					"midpoints" : [  ]
				}

			}
, 			{
				"patchline" : 				{
					"source" : [ "obj-43", 0 ],
					"destination" : [ "obj-45", 0 ],
					"hidden" : 0,
					"midpoints" : [  ]
				}

			}
, 			{
				"patchline" : 				{
					"source" : [ "obj-39", 0 ],
					"destination" : [ "obj-22", 0 ],
					"hidden" : 0,
					"midpoints" : [ 253.5, 126.5, 42.5, 126.5 ]
				}

			}
, 			{
				"patchline" : 				{
					"source" : [ "obj-5", 0 ],
					"destination" : [ "obj-37", 0 ],
					"hidden" : 0,
					"midpoints" : [  ]
				}

			}
, 			{
				"patchline" : 				{
					"source" : [ "obj-4", 0 ],
					"destination" : [ "obj-36", 0 ],
					"hidden" : 0,
					"midpoints" : [  ]
				}

			}
, 			{
				"patchline" : 				{
					"source" : [ "obj-3", 0 ],
					"destination" : [ "obj-35", 0 ],
					"hidden" : 0,
					"midpoints" : [  ]
				}

			}
, 			{
				"patchline" : 				{
					"source" : [ "obj-2", 0 ],
					"destination" : [ "obj-34", 0 ],
					"hidden" : 0,
					"midpoints" : [  ]
				}

			}
, 			{
				"patchline" : 				{
					"source" : [ "obj-33", 4 ],
					"destination" : [ "obj-45", 0 ],
					"hidden" : 0,
					"color" : [ 0.0, 0.0, 0.0, 0.360784 ],
					"midpoints" : [  ]
				}

			}
, 			{
				"patchline" : 				{
					"source" : [ "obj-56", 0 ],
					"destination" : [ "obj-53", 5 ],
					"hidden" : 0,
					"midpoints" : [  ]
				}

			}
, 			{
				"patchline" : 				{
					"source" : [ "obj-10", 0 ],
					"destination" : [ "obj-56", 0 ],
					"hidden" : 0,
					"midpoints" : [ 456.5, 342.5, 296.5, 342.5 ]
				}

			}
, 			{
				"patchline" : 				{
					"source" : [ "obj-7", 0 ],
					"destination" : [ "obj-56", 0 ],
					"hidden" : 0,
					"midpoints" : [  ]
				}

			}
, 			{
				"patchline" : 				{
					"source" : [ "obj-37", 0 ],
					"destination" : [ "obj-53", 4 ],
					"hidden" : 0,
					"midpoints" : [  ]
				}

			}
, 			{
				"patchline" : 				{
					"source" : [ "obj-36", 0 ],
					"destination" : [ "obj-53", 3 ],
					"hidden" : 0,
					"midpoints" : [  ]
				}

			}
, 			{
				"patchline" : 				{
					"source" : [ "obj-35", 0 ],
					"destination" : [ "obj-53", 2 ],
					"hidden" : 0,
					"midpoints" : [  ]
				}

			}
, 			{
				"patchline" : 				{
					"source" : [ "obj-34", 0 ],
					"destination" : [ "obj-53", 1 ],
					"hidden" : 0,
					"midpoints" : [  ]
				}

			}
, 			{
				"patchline" : 				{
					"source" : [ "obj-32", 0 ],
					"destination" : [ "obj-55", 0 ],
					"hidden" : 0,
					"midpoints" : [  ]
				}

			}
, 			{
				"patchline" : 				{
					"source" : [ "obj-31", 0 ],
					"destination" : [ "obj-55", 0 ],
					"hidden" : 0,
					"midpoints" : [  ]
				}

			}
, 			{
				"patchline" : 				{
					"source" : [ "obj-55", 0 ],
					"destination" : [ "obj-53", 0 ],
					"hidden" : 0,
					"midpoints" : [  ]
				}

			}
, 			{
				"patchline" : 				{
					"source" : [ "obj-25", 1 ],
					"destination" : [ "obj-55", 1 ],
					"hidden" : 0,
					"midpoints" : [  ]
				}

			}
, 			{
				"patchline" : 				{
					"source" : [ "obj-44", 0 ],
					"destination" : [ "obj-25", 0 ],
					"hidden" : 0,
					"midpoints" : [  ]
				}

			}
, 			{
				"patchline" : 				{
					"source" : [ "obj-53", 0 ],
					"destination" : [ "obj-47", 0 ],
					"hidden" : 0,
					"midpoints" : [  ]
				}

			}
, 			{
				"patchline" : 				{
					"source" : [ "obj-23", 0 ],
					"destination" : [ "obj-39", 0 ],
					"hidden" : 0,
					"midpoints" : [  ]
				}

			}
, 			{
				"patchline" : 				{
					"source" : [ "obj-33", 1 ],
					"destination" : [ "obj-35", 0 ],
					"hidden" : 0,
					"color" : [ 0.0, 0.0, 0.0, 0.360784 ],
					"midpoints" : [  ]
				}

			}
, 			{
				"patchline" : 				{
					"source" : [ "obj-33", 2 ],
					"destination" : [ "obj-36", 0 ],
					"hidden" : 0,
					"color" : [ 0.0, 0.0, 0.0, 0.360784 ],
					"midpoints" : [  ]
				}

			}
, 			{
				"patchline" : 				{
					"source" : [ "obj-33", 3 ],
					"destination" : [ "obj-37", 0 ],
					"hidden" : 0,
					"color" : [ 0.0, 0.0, 0.0, 0.360784 ],
					"midpoints" : [  ]
				}

			}
, 			{
				"patchline" : 				{
					"source" : [ "obj-33", 0 ],
					"destination" : [ "obj-34", 0 ],
					"hidden" : 0,
					"color" : [ 0.0, 0.0, 0.0, 0.360784 ],
					"midpoints" : [  ]
				}

			}
, 			{
				"patchline" : 				{
					"source" : [ "obj-22", 0 ],
					"destination" : [ "obj-33", 0 ],
					"hidden" : 0,
					"midpoints" : [  ]
				}

			}
, 			{
				"patchline" : 				{
					"source" : [ "obj-25", 0 ],
					"destination" : [ "obj-26", 0 ],
					"hidden" : 0,
					"midpoints" : [  ]
				}

			}
, 			{
				"patchline" : 				{
					"source" : [ "obj-26", 1 ],
					"destination" : [ "obj-32", 0 ],
					"hidden" : 0,
					"midpoints" : [  ]
				}

			}
, 			{
				"patchline" : 				{
					"source" : [ "obj-26", 0 ],
					"destination" : [ "obj-31", 0 ],
					"hidden" : 0,
					"midpoints" : [  ]
				}

			}
, 			{
				"patchline" : 				{
					"source" : [ "obj-7", 1 ],
					"destination" : [ "obj-10", 0 ],
					"hidden" : 0,
					"midpoints" : [  ]
				}

			}
, 			{
				"patchline" : 				{
					"source" : [ "obj-45", 0 ],
					"destination" : [ "obj-7", 0 ],
					"hidden" : 0,
					"midpoints" : [  ]
				}

			}
, 			{
				"patchline" : 				{
					"source" : [ "obj-39", 1 ],
					"destination" : [ "obj-26", 0 ],
					"hidden" : 0,
					"midpoints" : [  ]
				}

			}
 ]
	}

}
